<svg version="1" xmlns="http://www.w3.org/2000/svg" width="933.333" height="933.333" viewBox="0 0 700.000000 700.000000"><path d="M336.8 116.5c-.2.2-3.5.4-7.3.6-3.9.1-7.3.3-7.7.6-.3.2.4 3.8 1.8 8.1 10.6 34.1 16.4 71.2 17.8 113.4l.4 9.8-3.9.2c-4.4.2-6.5.3-16.9 1.2-4.1.4-8.6.8-10 1.1-1.4.2-5.4.7-9 1-6.4.6-7.6.8-15.5 1.9-2.2.3-5.8.8-8 1.1-3.7.4-8.5 1.1-14.5 2-6.4 1-26.8 4.5-29.5 5-24.9 4.6-35.7 7-62 13.6-17 4.3-33.2 8.5-36 9.3l-5 1.6-3-3.3c-1.7-1.7-9.1-10.2-16.5-18.7s-13.7-15.7-14-16c-.3-.3-3-3.4-6-6.9-3-3.6-6.2-7.2-7-8.1-.8-.9-4-4.5-7.1-8.1-3.1-3.5-15.6-17.9-27.8-31.9-12.3-14-23.3-26.6-24.5-28-13.9-16.2-24-27.6-24.6-27.8-.7-.3 1.2 6.9 3 11.3.7 1.6 20.7 65.7 30.5 97.5 1.3 4.1 4.9 15.6 8 25.5 9.1 29.1 11.7 37.9 11.8 39.5.1 1.4-3 14.9-7.4 32.5-1.1 4.4-2.4 9.8-2.9 12-.4 2.2-3.1 13.7-5.9 25.5-7.1 29.5-7.1 29.2-2.2 24.7 1.5-1.3 10.9-9.1 21.1-17.2 22.7-18.2 28.4-22.8 33.5-27.1 2.2-1.8 13-10.5 24-19.3l20-16 3.1 12.5c3.2 12.7 9 30.1 10.5 31.8.5.6.9 1.6.9 2.3 0 2.6 13.3 28.1 19.5 37.3 34.4 51.2 84.4 88.6 145.5 108.7 5.7 1.9 10.6 3.5 10.8 3.7.2.3-1 8.6-4.4 31.5-.3 1.8-.7 4.2-.9 5.1-.2 1-.7 4-1.1 6.7-.3 2.6-.8 5.5-.9 6.3-1.3 7.8-1.7 10.4-1.3 10 .8-.8 24.5-31.4 32.8-42.4 7.4-9.7 7.5-9.8 11-9.1 26 4.7 71.2 5.7 97.3 2 23.2-3.3 36.6-6.3 56.7-12.7 44-14 82.1-36.8 114.4-68.6 16.1-15.8 26.7-29.3 41.3-52.7 5.8-9.2 18.9-39.5 20.8-48 .4-1.7 1.5-5.9 2.5-9.5 1-3.6 2.1-8.1 2.5-10 2.5-15.4 3.5-23.4 4-33.4l.6-11.5-6.8-2c-27-8-82.8-21.1-100.8-23.6-2.2-.3-6-1-8.5-1.5s-12.6-2.1-22.5-3.5c-17.9-2.5-20-2.8-30.5-4-3-.4-6.6-.8-8-1-3.2-.4-12.6-1.3-31.5-3-7.8-.7-11.4-1.1-12.6-1.4-.3 0-.7-2.2-.7-4.9-.1-2.6-.7-7.2-1.2-10.2-.5-3-1.2-7-1.5-8.7-2-12.2-11.3-33.7-20.3-47.2-7.3-11.2-25.2-29-36.2-36.3-22.2-14.6-45.7-22.3-71.4-23.3-5.7-.2-10.6-.2-10.8 0z"/></svg>