<svg xmlns="http://www.w3.org/2000/svg" viewBox="0 0 512 512">
	<path fill="#88c9db" d="M512 210c0 39-14 76-38 105-38 47-100 77-170 77-57 0-110-20-147-53s-61-79-61-129a725 725 0 0 1 154-28c0-36-6-68-15-96l15-1c54 0 98 42 100 96 55 4 109 13 162 29z"/>
	<path fill="#393b85" d="M450 231c-3 0-6-2-7-5s0-7 2-9c6-4 14 1 13 8-1 3-4 6-8 6z"/>
	<g fill="#f2fbff">
		<path d="M251 289l-3 21-10 72c-31-9-59-24-81-43-17-15-30-32-41-50h135zM503 263c-7 19-17 37-29 52-38 47-100 77-170 77-15 0-29-1-43-4l46-62 12-16c22-30 57-47 94-47h90z"/>
	</g>
	<path fill="#88c9db" d="M403 230l-265 25-22 34h135l-13 93-7 45 30-39 58-78c22-30 57-47 94-47h90l-100-33z"/>
	<path fill="#56a0bf" d="M211 290c-44-31-59-73-61-94l-54 14c0 50 23 96 61 129 16 13 34 25 54 34v-83z"/>
	<g fill="#c9e4ff">
		<path d="M209 289c11 8 24 15 39 21l-10 72c-31-9-59-24-81-43-17-15-30-32-41-50h93zM474 315c-38 47-100 77-170 77-15 0-29-1-43-4l46-62c43 7 98 5 167-11z"/>
	</g>
	<path fill="#56a0bf" d="M96 210L0 100l40 128-17 72 88-71"/>
	<g fill="#605d9c">
		<path d="M396 248c-4 0-7-3-7-8v-30a8 8 0 1 1 15 0v30c0 5-3 8-8 8zM370 248c-4 0-8-3-8-8v-30a8 8 0 1 1 16 0v30c0 5-3 8-8 8zM344 248c-4 0-8-3-8-8v-30a8 8 0 1 1 16 0v30c0 5-4 8-8 8z"/>
	</g>
	<path fill="#56a0bf" d="M273 181l-23 1c0-36-6-68-15-96 40 31 38 95 38 95z"/>
</svg>
